<svg xmlns="http://www.w3.org/2000/svg" width="512" height="512" viewBox="0 0 512 512"><path class="pokegym" d="M229.949 505.917c-.028-.23-8.244-31.467-18.259-69.417l-18.207-69-13.492-.674c-83.327-4.164-153.097-65.66-168.553-148.564-2.21-11.853-2.997-40.256-1.48-53.367 1.483-12.812 6.725-33.505 11.414-45.064 10.36-25.533 23.54-44.895 43.789-64.331 13.58-13.034 26.116-21.882 43.197-30.488C167.591-4.83 235.255-.362 291.586 37.113c20.78 13.824 46.42 42.178 56.973 63.004 1.361 2.686 2.764 4.883 3.118 4.883.354 0 34.326-18.745 75.495-41.655 41.168-22.91 75.01-41.473 75.203-41.25.33.38-270.562 482.425-271.802 483.666-.315.315-.596.385-.624.156zM215.5 284.047c28.816-7.908 52.807-28.17 65.497-55.32 5.879-12.578 8.078-22.117 8.696-37.727.405-10.222.132-15.643-1.126-22.326-7.577-40.278-37.022-70.961-77.067-80.307-11.847-2.765-33.909-2.546-45.94.455-28.07 7.003-52.68 26.49-65.418 51.799-7.348 14.599-10.222 25.662-10.878 41.879-1.163 28.72 8.428 53.87 28.236 74.04 15.368 15.65 31.62 24.634 52.5 29.021 10.095 2.121 35.308 1.282 45.5-1.515zM175 247.492c-29.13-7.101-49.676-34.843-47.701-64.409 1.066-15.953 7.098-29.313 18.285-40.5 33.153-33.153 87.675-19.914 103.54 25.14 2.9 8.24 3.58 23.683 1.441 32.776-5.376 22.858-24.01 41.643-46.565 46.943-7.877 1.851-21.514 1.874-29 .05z"/></svg>