<svg xmlns="http://www.w3.org/2000/svg" width="512" height="512" viewBox="0 0 512 512"><path d="M232 506.386c-61.884-7.277-111.552-30.837-153.55-72.835-37.87-37.868-61.394-83.408-70.571-136.612C5.837 285.1 5.561 280.226 5.561 256s.276-29.1 2.318-40.94c9.177-53.203 32.702-98.743 70.57-136.61 37.868-37.87 83.408-61.394 136.612-70.571C226.9 5.837 231.774 5.561 256 5.561s29.1.276 40.94 2.318c53.203 9.177 98.743 32.702 136.61 70.57 37.87 37.868 61.394 83.408 70.571 136.612 2.042 11.84 2.318 16.713 2.318 40.939s-.276 29.1-2.318 40.94c-9.177 53.203-32.702 98.743-70.57 136.61-37.485 37.486-82.463 60.93-134.551 70.134-12.453 2.2-17.96 2.601-39 2.838-13.475.152-26.075.09-28-.136zm54.804-31.888C351 465.379 408.23 427.982 443.246 372.27c16.306-25.943 27.344-57.06 31.291-88.21 2.303-18.169 1.625-49.628-1.412-65.56-4.508-23.65-10.455-41.306-20.773-61.67C397.936 49.424 267.584 5.626 159.5 58.433c-43.446 21.226-78.011 55.287-99.852 98.397-15.754 31.093-22.507 58.025-23.38 93.23-.949 38.318 5.352 68.57 21.148 101.536 10.4 21.7 22.954 39.573 40.564 57.747 19.025 19.632 37.113 32.807 61.52 44.807 25.91 12.74 48.774 18.872 83 22.262 7.277.72 33.829-.427 44.304-1.914zM238 418.41c-1.375-.243-6.775-1.162-12-2.042-49.65-8.362-96.325-44.614-117.894-91.565-6.577-14.317-12.192-33.83-13.685-47.554l-.68-6.25h71.94l1.263 5.75c1.512 6.892 6.332 18.883 10.323 25.68 17.985 30.638 53.801 48.732 88.389 44.653 28.91-3.41 54.625-20.032 69.077-44.652 3.99-6.798 8.81-18.789 10.323-25.681l1.262-5.75h71.94l-.68 6.25c-1.492 13.725-7.107 33.237-13.684 47.554-18.122 39.45-54.34 72.027-95.314 85.738-17.793 5.954-27.63 7.548-49.08 7.952-10.45.197-20.125.16-21.5-.083zm1.972-108.288c-19.488-6.237-34.937-22.897-38.875-41.922-6.297-30.42 13.18-60.351 43.403-66.697 8.826-1.853 14.174-1.853 23 0 25.883 5.435 44.427 28.235 44.485 54.697.056 25.063-16.53 47.036-40.916 54.203-7.49 2.2-23.804 2.053-31.097-.281zM94 238.051c0-4.177 4.239-23.608 7.057-32.35 4.072-12.63 14.567-33.287 22.689-44.657 25.184-35.258 65.885-59.863 109.374-66.119 10.77-1.549 34.99-1.549 45.76 0 43.527 6.262 83.988 30.733 109.374 66.152 8.105 11.307 18.606 31.961 22.689 44.624 2.818 8.742 7.057 28.173 7.057 32.35 0 1.896-.979 1.949-35.961 1.949h-35.962l-1.095-4.25c-4.469-17.35-11.453-30.059-23.417-42.614-10.995-11.537-24.58-19.715-41.144-24.766-8.067-2.46-10.406-2.72-24.421-2.72-14.015 0-16.354.26-24.421 2.72-33.12 10.1-55.941 33.918-64.561 67.38l-1.095 4.25H129.96C94.98 240 94 239.947 94 238.05z"/></svg>